<svg xmlns="http://www.w3.org/2000/svg" viewBox="0 0 85.04 85.04"><defs><style>.cls-1{fill:#291f40;fill-rule:evenodd;}.cls-2{fill:#9b1c1f;}</style></defs><title>0001 GDF Icon Library_</title><g id="Icons"><path class="cls-1" d="M45.4,24.79h.13a.85.85,0,0,0,.24-.09.53.53,0,0,0,.2-.16.64.64,0,0,0,.14-.22,1.21,1.21,0,0,0,0-.18.77.77,0,0,0-.19-.6.73.73,0,0,0-.37-.23l-.13,0H31a.84.84,0,0,0-.4.2.8.8,0,0,0-.15.21.84.84,0,0,0-.08.31.77.77,0,0,0,.08.37.91.91,0,0,0,.11.16.62.62,0,0,0,.2.16,1.17,1.17,0,0,0,.24.09H45.4Zm0,4.77h.13a.85.85,0,0,0,.24-.09.77.77,0,0,0,.38-.5,1.28,1.28,0,0,0,0-.19.7.7,0,0,0,0-.25A.64.64,0,0,0,46,28.3a.75.75,0,0,0-.37-.24l-.13,0H31a.59.59,0,0,0-.24.09.62.62,0,0,0-.2.16.69.69,0,0,0-.17.34.86.86,0,0,0,0,.32.64.64,0,0,0,.06.18.8.8,0,0,0,.15.21.84.84,0,0,0,.4.2H45.4Zm9.54,4.77.16,0a.78.78,0,0,0,.36-.19.75.75,0,0,0,.15-.2.9.9,0,0,0,.08-.23,1,1,0,0,0,0-.25A.78.78,0,0,0,55.4,33a1,1,0,0,0-.3-.14H31a.68.68,0,0,0-.31.11.7.7,0,0,0-.19.15,1,1,0,0,0-.13.22.74.74,0,0,0,0,.63.75.75,0,0,0,.15.2.78.78,0,0,0,.36.19l.16,0ZM45.4,43.86h.13a.76.76,0,0,0,.4-.2.8.8,0,0,0,.15-.21.75.75,0,0,0,0-.62,1,1,0,0,0-.1-.17.77.77,0,0,0-.18-.18.94.94,0,0,0-.23-.1.3.3,0,0,0-.13,0H31a.7.7,0,0,0-.4.2.62.62,0,0,0-.15.2.72.72,0,0,0-.07.25.7.7,0,0,0,.22.64,1,1,0,0,0,.16.12.75.75,0,0,0,.24.08H45.4Zm0,4.77h.13a.85.85,0,0,0,.24-.09.91.91,0,0,0,.16-.11.78.78,0,0,0,.23-.58.7.7,0,0,0,0-.25.64.64,0,0,0-.14-.22.8.8,0,0,0-.37-.23.3.3,0,0,0-.13,0H31a.84.84,0,0,0-.4.2.8.8,0,0,0-.15.21.64.64,0,0,0-.06.18.81.81,0,0,0,0,.38.71.71,0,0,0,.16.28.62.62,0,0,0,.2.16,1.17,1.17,0,0,0,.24.09H45.4ZM59.18,62.92a1.86,1.86,0,0,1-1.86,1.86H28.72a1.86,1.86,0,0,1-1.86-1.86V21.12a1.86,1.86,0,0,1,1.86-1.86h21a1.12,1.12,0,0,1,.77.32,1.09,1.09,0,0,1,.31.77v6.5a.34.34,0,0,0,0,.1l0,.14a.83.83,0,0,0,.18.3.92.92,0,0,0,.3.18.58.58,0,0,0,.14,0H58.1a1.05,1.05,0,0,1,.76.32,1,1,0,0,1,.32.76V62.92Z"/><path class="cls-1" d="M57,25a.67.67,0,0,1,.14.71.66.66,0,0,1-.6.4H53a.65.65,0,0,1-.65-.65V21.9a.66.66,0,0,1,.4-.6.66.66,0,0,1,.71.14L57,25Z"/><path class="cls-2" d="M42.7,5.26v-3A39.25,39.25,0,0,0,18.64,10,40.07,40.07,0,0,0,2.73,36.24,40.62,40.62,0,0,0,8.26,63.75l2.52-1.58A37.56,37.56,0,0,1,5.66,36.71h0A37.05,37.05,0,0,1,20.39,12.39,36.3,36.3,0,0,1,42.7,5.26Z"/><path class="cls-2" d="M76.78,21.27h0l-2.52,1.59a37.59,37.59,0,0,1,5.12,25.46A37,37,0,0,1,64.65,72.64a36.3,36.3,0,0,1-22,7.14c0,1-.1,2-.16,3H43A39.26,39.26,0,0,0,66.4,75.07,40,40,0,0,0,82.3,48.79,40.58,40.58,0,0,0,76.78,21.27Z"/><path class="cls-2" d="M57.61,8.2l1.18-2.75a39.92,39.92,0,0,0-9.35-2.79l-.49,3A36.59,36.59,0,0,1,57.61,8.2Z"/><path class="cls-2" d="M27.44,76.85,26.26,79.6a40.21,40.21,0,0,0,9.34,2.8l.49-3a36.52,36.52,0,0,1-8.65-2.59Z"/><path class="cls-2" d="M14.65,67.38l-2.2,2a39.6,39.6,0,0,0,7.34,6.47l1.66-2.48a36.88,36.88,0,0,1-6.8-6Z"/><path class="cls-2" d="M70.39,17.65l2.21-2a39.66,39.66,0,0,0-7.35-6.47l-1.66,2.48a36.88,36.88,0,0,1,6.8,6Z"/></g></svg>